HIERARCHY
ROOT Hips
{
	OFFSET 0.000000 0.000000 0.000000
	CHANNELS 6 Xposition Yposition Zposition Zrotation Yrotation Xrotation 
	JOINT LeftUpLeg_virtual
	{
		OFFSET 0.000000 0.000000 0.000000
		CHANNELS 3 Zrotation Yrotation Xrotation
		JOINT LeftUpLeg
		{
			OFFSET 10.205400 -3.823500 0.155100
			CHANNELS 3 Zrotation Yrotation Xrotation
			JOINT LeftLeg
			{
				OFFSET 0.708757 -12.982077 0.567790
				CHANNELS 3 Zrotation Yrotation Xrotation
				JOINT LeftFoot
				{
					OFFSET -0.708756 -10.717838 -2.184338
					CHANNELS 3 Zrotation Yrotation Xrotation
					JOINT LeftToeBase
					{
						OFFSET 0.108149 -7.191104 7.560241
						CHANNELS 3 Zrotation Yrotation Xrotation
						End Site
						{
							OFFSET 0.000000 0.000000 0.000000
						}
					}
				}
			}
		}
	}
	JOINT RightUpLeg_virtual
	{
		OFFSET 0.000000 0.000000 0.000000
		CHANNELS 3 Zrotation Yrotation Xrotation
		JOINT RightUpLeg
		{
			OFFSET -10.205400 -3.823500 0.005500
			CHANNELS 3 Zrotation Yrotation Xrotation
			JOINT RightLeg
			{
				OFFSET -0.708756 -12.982134 0.610632
				CHANNELS 3 Zrotation Yrotation Xrotation
				JOINT RightFoot
				{
					OFFSET 0.708754 -10.717769 -1.945823
					CHANNELS 3 Zrotation Yrotation Xrotation
					JOINT RightToeBase
					{
						OFFSET -0.108140 -7.191069 7.372968
						CHANNELS 3 Zrotation Yrotation Xrotation
						End Site
						{
							OFFSET 0.000000 0.000000 0.000000
						}
					}
				}
			}
		}
	}
	JOINT Spine_virtual
	{
		OFFSET 0.000000 0.000000 0.000000
		CHANNELS 3 Zrotation Yrotation Xrotation
		JOINT Spine
		{
			OFFSET 0.000000 6.876099 0.125700
			CHANNELS 3 Zrotation Yrotation Xrotation
			JOINT Spine1
			{
				OFFSET 0.000000 8.022060 0.146608
				CHANNELS 3 Zrotation Yrotation Xrotation
				JOINT Spine2
				{
					OFFSET 0.000000 9.168068 0.167552
					CHANNELS 3 Zrotation Yrotation Xrotation
					JOINT Neck_virtual
					{
						OFFSET 0.000000 0.000000 0.000000
						CHANNELS 3 Zrotation Yrotation Xrotation
						JOINT Neck
						{
							OFFSET 0.000000 10.314075 0.188496
							CHANNELS 3 Zrotation Yrotation Xrotation
							JOINT Head
							{
								OFFSET 0.000000 7.643700 -2.377400
								CHANNELS 3 Zrotation Yrotation Xrotation
								End Site
								{
									OFFSET 0.000000 0.000000 0.000000
								}
							}
						}
					}
					JOINT LeftShoulder_virtual
					{
						OFFSET 0.000000 0.000000 0.000000
						CHANNELS 3 Zrotation Yrotation Xrotation
						JOINT LeftShoulder
						{
							OFFSET 4.392200 8.824978 0.174984
							CHANNELS 3 Zrotation Yrotation Xrotation
							JOINT LeftArm
							{
								OFFSET 8.771219 -2.981674 -0.026999
								CHANNELS 3 Zrotation Yrotation Xrotation
								JOINT LeftForeArm
								{
									OFFSET 8.512804 0.000000 -0.000000
									CHANNELS 3 Zrotation Yrotation Xrotation
									JOINT LeftHand
									{
										OFFSET 18.484802 0.000000 -0.000000
										CHANNELS 3 Zrotation Yrotation Xrotation
										End Site
										{
											OFFSET 0.000000 0.000000 0.000000
										}
									}
								}
							}
						}
					}
					JOINT RightShoulder_virtual
					{
						OFFSET 0.000000 0.000000 0.000000
						CHANNELS 3 Zrotation Yrotation Xrotation
						JOINT RightShoulder
						{
							OFFSET -4.392200 8.824993 0.141379
							CHANNELS 3 Zrotation Yrotation Xrotation
							JOINT RightArm
							{
								OFFSET -8.771282 -2.981682 -0.094208
								CHANNELS 3 Zrotation Yrotation Xrotation
								JOINT RightForeArm
								{
									OFFSET -8.494598 0.000000 0.000000
									CHANNELS 3 Zrotation Yrotation Xrotation
									JOINT RightHand
									{
										OFFSET -18.483803 0.000000 0.000001
										CHANNELS 3 Zrotation Yrotation Xrotation
										End Site
										{
											OFFSET 0.000000 0.000000 0.000000
										}
									}
								}
							}
						}
					}
				}
			}
		}
	}
}
MOTION
Frames: 9
Frame Time: 0.033333
5.322504 35.971909 -15.045603 179.825863 -10.224238 -179.992355 0.356202 -0.344748 11.011967 -1.606130 -5.793022 -17.983980 8.262528 3.877947 22.363600 0.167202 -0.164215 5.473549 0.000000 0.000000 0.000000 5.396588 0.800669 11.104752 -0.511992 5.566040 -9.128994 -6.366541 -0.311058 18.534538 7.951383 0.003745 3.028971 0.000000 0.000000 0.000000 2.645998 2.325074 -1.264598 0.435350 -3.592646 -14.968071 0.095943 -3.296716 9.049839 0.018666 0.027541 0.006867 -0.379271 -0.889847 11.488386 1.091103 1.365894 19.601403 0.000000 0.000000 0.000000 1.405496 -0.334275 8.496386 -18.906869 -10.743478 2.173129 -38.393357 -3.432023 3.466128 -0.581199 -52.982751 1.773755 0.000000 0.000000 0.000000 -2.686179 0.902903 7.800368 27.334755 7.268486 4.125244 43.092213 -6.840058 4.688448 -2.124388 33.159301 -2.922081 0.000000 0.000000 0.000000 
5.237659 35.953358 -15.033026 179.779171 -10.000386 -179.883864 0.189094 -0.231576 11.069757 -1.622715 -5.706667 -17.710448 8.373213 3.666229 22.163464 0.205076 -0.061524 5.975403 0.000000 0.000000 0.000000 5.646419 0.599451 11.223373 -0.544250 5.328874 -9.069066 -6.717577 -0.663831 18.805780 7.392808 -0.493455 3.186886 0.000000 0.000000 0.000000 2.632001 2.182465 -1.239561 0.509196 -3.509729 -14.855899 0.074073 -3.196407 9.063602 0.028750 0.146774 0.021203 -0.329469 -0.955770 11.511146 1.165227 1.366892 19.563579 0.000000 0.000000 0.000000 1.405208 -0.362718 8.545551 -18.930211 -10.740818 2.136052 -38.721900 -3.015709 4.261042 -0.641851 -52.418058 1.928129 0.000000 0.000000 0.000000 -2.688075 0.806976 7.881258 27.380132 7.180455 3.922730 43.269498 -7.272274 4.421586 -2.141634 32.632369 -2.929853 0.000000 0.000000 0.000000 
5.089942 35.910236 -15.056383 179.719038 -10.112313 -179.847979 -0.011022 -0.362211 11.273403 -1.457481 -5.711132 -17.323750 8.310942 3.420078 21.816066 0.038253 -0.277235 5.960572 0.000000 0.000000 0.000000 5.398748 0.621316 11.378013 -0.685830 5.460639 -9.160578 -6.651245 -0.680498 18.843254 7.416931 -0.540250 2.923473 0.000000 0.000000 0.000000 2.489192 2.302805 -1.185670 0.681226 -3.573472 -14.731991 0.084920 -3.269056 9.075262 0.024373 0.052865 0.047948 -0.365771 -0.956689 11.436220 1.174513 1.294903 19.466775 0.000000 0.000000 0.000000 1.413937 -0.408217 8.548797 -18.946291 -10.759003 2.202594 -39.328946 -1.979087 5.713588 -0.422411 -51.054838 1.885341 0.000000 0.000000 0.000000 -2.709247 0.786900 7.814046 27.322688 6.851981 4.015208 43.523745 -8.198616 3.842125 -2.259716 31.885997 -2.984611 0.000000 0.000000 0.000000 
4.898701 35.860435 -15.143087 179.765921 -10.300178 -179.792709 -0.262624 -0.343679 11.460838 -0.967420 -5.832742 -17.145578 8.164970 3.206328 21.514189 -0.579481 -1.018588 5.411234 0.000000 0.000000 0.000000 5.375453 0.679022 11.584756 -0.869442 5.574173 -9.252421 -6.709970 -0.686662 19.002911 7.483217 -0.579451 2.636402 0.000000 0.000000 0.000000 2.485316 2.289032 -1.191957 0.882044 -3.560630 -14.689095 0.025491 -3.286352 9.063774 -0.011383 0.033295 0.069822 -0.302740 -1.069278 11.418808 1.328180 1.306565 19.405973 0.000000 0.000000 0.000000 1.404972 -0.474901 8.487624 -18.994531 -10.680458 2.528978 -40.202507 -0.414121 7.079373 -0.136362 -48.983825 1.821614 0.000000 0.000000 0.000000 -2.684130 0.757878 7.839940 27.200892 6.495801 4.148343 43.998757 -9.519847 3.186956 -2.414173 30.734581 -3.082204 0.000000 0.000000 0.000000 
4.659625 35.814705 -15.301896 179.826805 -10.482206 -179.702632 -0.611142 -0.333745 11.680528 -0.513112 -5.871275 -16.802233 7.845694 2.329793 20.706408 -1.124087 -1.738808 4.735904 0.000000 0.000000 0.000000 5.347401 0.702528 11.858781 -1.111848 5.705506 -9.350064 -6.805375 -0.685570 19.228560 7.786942 -0.687579 2.380964 0.000000 0.000000 0.000000 2.448476 2.385813 -1.290440 1.163122 -3.524137 -14.627118 0.004284 -3.356687 8.971272 -0.026427 -0.002859 0.001697 -0.298033 -1.114780 11.437943 1.487574 1.297830 19.319345 0.000000 0.000000 0.000000 1.408334 -0.453466 8.544267 -18.903360 -10.516428 2.391225 -41.345748 1.973329 8.704904 0.013815 -46.524472 1.948861 0.000000 0.000000 0.000000 -2.808047 0.672617 7.868119 26.972608 5.967975 4.168256 44.656924 -11.296534 2.395590 -2.525279 29.559433 -3.084674 0.000000 0.000000 0.000000 
4.388433 35.792114 -15.494941 179.858046 -10.473024 -179.653428 -0.900247 -0.497846 12.016748 -0.407723 -5.674576 -16.127677 7.682084 1.928122 19.852425 -1.303584 -2.109891 4.050447 0.000000 0.000000 0.000000 5.351486 0.716779 12.212195 -1.505412 5.862622 -9.514535 -6.883581 -0.641949 19.586204 7.963136 -0.709119 2.283091 0.000000 0.000000 0.000000 2.398769 2.449694 -1.268849 1.415661 -3.371040 -14.715484 -0.028206 -3.323341 8.921030 -0.028529 0.041640 0.012231 -0.358937 -1.119542 11.312199 1.603192 1.287636 19.206070 0.000000 0.000000 0.000000 1.363903 -0.479416 8.440338 -18.796897 -10.198894 2.389296 -42.588962 4.832062 9.637628 0.363239 -43.794394 1.931479 0.000000 0.000000 0.000000 -2.922238 0.637942 7.784667 26.699650 5.318292 4.398250 45.561135 -13.218889 1.278888 -2.608845 28.438678 -3.081954 0.000000 0.000000 0.000000 
4.092432 35.787666 -15.676799 179.880395 -10.414544 -179.599496 -1.204962 -0.734594 12.308676 -0.683675 -4.709329 -15.201074 7.517845 1.582397 18.724655 -1.188983 -2.197861 3.262326 0.000000 0.000000 0.000000 5.371237 0.670772 12.567592 -2.039147 6.037148 -9.782929 -6.959743 -0.577010 20.025027 8.203318 -0.686647 2.317995 0.000000 0.000000 0.000000 2.384332 2.477680 -1.198515 1.632652 -3.244947 -14.776611 -0.095967 -3.342119 8.839910 -0.032944 0.014611 0.080720 -0.440717 -1.112297 11.195629 1.709165 1.302060 19.055634 0.000000 0.000000 0.000000 1.322330 -0.390109 8.341022 -18.545244 -9.620087 2.286815 -43.896376 8.198623 9.761100 0.686093 -41.035544 1.973723 0.000000 0.000000 0.000000 -3.054347 0.669217 7.610022 26.359271 4.638381 4.565950 46.532651 -15.135549 0.105515 -2.847611 27.527674 -3.264946 0.000000 0.000000 0.000000 
3.796542 35.797947 -15.799575 179.969638 -10.334010 -179.570837 -1.466380 -0.924507 12.495873 -1.075701 -3.739744 -14.103926 7.410082 1.646896 17.490436 -0.947337 -2.152096 2.381282 0.000000 0.000000 0.000000 5.452790 0.541903 12.853439 -2.631750 6.178282 -10.164197 -7.063201 -0.477888 20.527980 8.506108 -0.595932 2.476013 0.000000 0.000000 0.000000 2.453399 2.388578 -1.071366 1.812272 -3.045346 -14.769277 -0.179026 -3.297881 8.707781 -0.065475 0.032986 0.013846 -0.550291 -1.064627 11.153267 1.799872 1.352723 18.768971 0.000000 0.000000 0.000000 1.223442 -0.349809 8.308287 -18.199121 -8.984494 2.267693 -45.283061 11.783552 9.224048 1.241752 -38.511383 1.791651 0.000000 0.000000 0.000000 -3.169913 0.663712 7.591780 26.034786 4.038495 4.613281 47.495025 -16.973819 -1.183298 -2.927935 26.787006 -3.299097 0.000000 0.000000 0.000000 
3.520995 35.813786 -15.843175 179.940227 -10.252189 -179.516400 -1.520476 -1.053015 12.571536 -1.640754 -3.681010 -13.610679 7.702761 2.789757 16.810911 -1.046515 -2.425847 2.508555 0.000000 0.000000 0.000000 5.405952 0.352294 13.025633 -3.221804 6.272244 -10.642550 -7.129871 -0.366154 21.048572 8.836695 -0.493272 2.661445 0.000000 0.000000 0.000000 2.448642 2.141843 -0.913641 1.895039 -2.743226 -14.648855 -0.228004 -3.134297 8.606445 -0.019460 0.132530 0.059962 -0.676435 -0.994401 10.954351 1.806594 1.390214 18.297793 0.000000 0.000000 0.000000 1.096102 -0.393394 8.156602 -17.737393 -8.357747 2.177574 -46.669306 15.329233 8.122300 1.722518 -36.312202 1.664805 0.000000 0.000000 0.000000 -3.294063 0.653986 7.383985 25.720056 3.333577 4.763484 48.439042 -18.492604 -2.629481 -3.008327 26.087981 -3.361384 0.000000 0.000000 0.000000 
